# xmcd
#
# Track frame offsets:
#	150
#	17260
#	46940
#	69006
#	94339
#	102944
#	133528
#	168459
#	198005
#	215738
#	255292
#	279384
#	306584
#
# Disc length: 4341 seconds
#
# Revision: 1
# Processed by: cddbd v1.5.2PL0 Copyright (c) Steve Scherf et al.
# Submitted via: audiograbber 1.83.01
#
DISCID=aa10f30d
DTITLE=Markus Heitz - Die Legenden der Albae 1 - Gerechter Zorn CD8v8
DYEAR=2009
DGENRE=Vocal
TTITLE0=Gerechter Zorn CD8v8 01v13
TTITLE1=Gerechter Zorn CD8v8 02v13
TTITLE2=Gerechter Zorn CD8v8 03v13
TTITLE3=Gerechter Zorn CD8v8 04v13
TTITLE4=Gerechter Zorn CD8v8 05v13
TTITLE5=Gerechter Zorn CD8v8 06v13
TTITLE6=Gerechter Zorn CD8v8 07v13
TTITLE7=Gerechter Zorn CD8v8 08v13
TTITLE8=Gerechter Zorn CD8v8 09v13
TTITLE9=Gerechter Zorn CD8v8 10v13
TTITLE10=Gerechter Zorn CD8v8 11v13
TTITLE11=Gerechter Zorn CD8v8 12v13
TTITLE12=Gerechter Zorn CD8v8 13v13
EXTD=
EXTT0=
EXTT1=
EXTT2=
EXTT3=
EXTT4=
EXTT5=
EXTT6=
EXTT7=
EXTT8=
EXTT9=
EXTT10=
EXTT11=
EXTT12=
PLAYORDER=
